<svg width="180" height="180" viewBox="0 0 180 180" xmlns="http://www.w3.org/2000/svg">
  <!-- Background circle with gradient -->
  <defs>
    <radialGradient id="bg" cx="50%" cy="50%" r="50%">
      <stop offset="0%" style="stop-color:#4ade80;stop-opacity:1" />
      <stop offset="100%" style="stop-color:#16a34a;stop-opacity:1" />
    </radialGradient>
    <linearGradient id="leaf" x1="0%" y1="0%" x2="100%" y2="100%">
      <stop offset="0%" style="stop-color:#22c55e;stop-opacity:1" />
      <stop offset="100%" style="stop-color:#15803d;stop-opacity:1" />
    </linearGradient>
  </defs>
  
  <!-- Background -->
  <circle cx="90" cy="90" r="85" fill="url(#bg)" stroke="#15803d" stroke-width="3"/>
  
  <!-- Earth/Globe -->
  <circle cx="90" cy="90" r="45" fill="#3b82f6" opacity="0.8"/>
  
  <!-- Continents -->
  <path d="M65 65 Q80 55 90 65 Q100 80 110 65 Q100 90 90 100 Q80 90 65 80 Z" fill="#16a34a"/>
  <path d="M55 100 Q65 90 80 100 Q90 110 100 100" fill="#16a34a" opacity="0.8"/>
  <path d="M50 70 Q60 65 70 70 Q75 75 70 80 Q60 78 50 75 Z" fill="#16a34a" opacity="0.7"/>
  
  <!-- Leaf overlay -->
  <path d="M110 45 Q135 55 145 80 Q135 100 110 90 Q125 67 110 45 Z" fill="url(#leaf)" opacity="0.9"/>
  <path d="M110 45 Q125 67 110 90" stroke="#15803d" stroke-width="2" fill="none"/>
  
  <!-- Small sparkles for sustainability -->
  <circle cx="45" cy="55" r="4" fill="#fbbf24" opacity="0.8"/>
  <circle cx="140" cy="110" r="3" fill="#fbbf24" opacity="0.6"/>
  <circle cx="55" cy="135" r="2.5" fill="#fbbf24" opacity="0.7"/>
  <circle cx="25" cy="90" r="2" fill="#fbbf24" opacity="0.5"/>
  <circle cx="155" cy="70" r="2" fill="#fbbf24" opacity="0.6"/>
</svg>